<?xml version="1.0" standalone="no"?><svg xmlns="http://www.w3.org/2000/svg" viewBox="0 0 1440 320"><path fill="#D803A9" fill-opacity="1" d="M0,160L34.3,176C68.6,192,137,224,206,234.7C274.3,245,343,235,411,229.3C480,224,549,224,617,218.7C685.7,213,754,203,823,208C891.4,213,960,235,1029,224C1097.1,213,1166,171,1234,165.3C1302.9,160,1371,192,1406,208L1440,224L1440,320L1405.7,320C1371.4,320,1303,320,1234,320C1165.7,320,1097,320,1029,320C960,320,891,320,823,320C754.3,320,686,320,617,320C548.6,320,480,320,411,320C342.9,320,274,320,206,320C137.1,320,69,320,34,320L0,320Z"></path></svg>